<?xml version="1.0" encoding="utf-8"?>
<!-- Generator: Adobe Illustrator 22.0.0, SVG Export Plug-In . SVG Version: 6.00 Build 0)  -->
<svg version="1.1" id="Main" xmlns="http://www.w3.org/2000/svg" xmlns:xlink="http://www.w3.org/1999/xlink" x="0px" y="0px"
	 viewBox="0 0 1110.7 395.6" style="enable-background:new 0 0 1110.7 395.6;" xml:space="preserve">
<style type="text/css">
	.st0{fill:#40E0D0;}
	.st1, .st2{fill:#1B1464;}
	.st3{fill:#ffffff;}
	/*.st3{fill:#2E2D29;}*/

</style>


<circle id="circle" class="st0" cx="235.7" cy="173.2" r="127"/>


<path id="title" class="st2" d="M428.8,189h13.9l21.9,39l21.8-39h13.9v83.4h-13.1v-59.9l-22.6,39.3h-0.3l-22.4-39.2v59.8h-12.9V189z
	 M516.4,189h13.3v83.4h-13.3V189z M545.9,189h13.3v71.1h36.1v12.3h-49.4V189z M605.3,189h52.3v12h-39.2v23.4h34.8v12h-34.8v23.9
	h39.7v12h-52.9V189z M664.2,261.5l8.1-10c6.2,5.6,13.2,9.8,22,9.8c8.2,0,13.6-4.6,13.6-10.9v-0.2c0-5.4-2.9-8.9-16.4-13.9
	c-15.9-6.1-23.9-11.9-23.9-25.1v-0.2c0-13.5,10.9-23.2,26.2-23.2c9.7,0,18.5,3.2,26,9.8l-7.6,10.2c-5.7-4.8-12-7.9-18.8-7.9
	c-7.8,0-12.6,4.2-12.6,10v0.1c0,6,3.2,9.2,17.5,14.8c15.7,6,22.7,12.4,22.7,24.5v0.2c0,14.4-11.3,23.9-26.9,23.9
	C683.5,273.5,673.2,269.8,664.2,261.5z M781.9,188.4h12.7l30.8,83.9h-13.9l-7.1-19.9h-33l-7,19.9h-13.4L781.9,188.4z M800.3,240.7
	l-12.3-34.5l-12.4,34.5H800.3z M820.8,189h14.1l16.7,61.5l17.3-61.7h11.5l17.4,61.7l16.6-61.5h13.7l-24.4,83.9h-12l-17.3-59.9
	l-17.3,59.9h-11.9L820.8,189z M954.3,188.4h12.7l30.8,83.9H984l-7.1-19.9h-33l-7,19.9h-13.4L954.3,188.4z M972.8,240.7l-12.3-34.5
	l-12.4,34.5H972.8z M1017.1,239.2L988.9,189h15.1l19.9,36.5l19.9-36.5h14.8l-28.2,49.9v33.4h-13.4V239.2z"/>


<path id="arrow" class="st1" d="M120.2,201.8c-6.2-12.6-10-26.5-11-41.2l19.4-57.8h31.6l15.1,44.2l14.8-44.2h31.6l50.3,146.8
	c-7.9,4.4-16.4,7.8-25.3,10.2l-40.7-123.4h-3.6L187.8,183l27.5,80.2c-10.6-0.3-20.9-2.2-30.6-5.4l-10.6-32l-7.7,24.1
	c-7.5-4.1-14.4-9-20.7-14.6l15.9-47.4l-17-51.6H141L120.2,201.8z M341.4,103l-69.5,69.5h56.3c-6.1,55-52.7,97.7-109.3,97.7
	c-58.8,0-106.9-46.2-109.8-104.3c0,0.9-0.1,1.7-0.1,2.6c0-1.2-0.1-2.3-0.1-3.5c0-1.3,0-2.7,0.1-4L52,331.1h27.1l37.1-116.7
	c5.2,14.9,13.1,28.5,23,40.3l-25.6,76.3h27.1l18.3-57.4c11.2,8.7,23.9,15.6,37.6,20.2l12.3,37.2h29.7L228,300.1
	c3.2,0.2,6.4,0.4,9.6,0.4c7.6,0,15-0.7,22.2-1.9l10.7,32.5h29.7l-13.8-40.2c46.6-19.2,79.5-64.9,79.7-118.4h44.8L341.4,103z"/>


<path id="tagline" class="st3" d="M432.2,297.4h2.8v33.2h-2.8V297.4z M455.9,318.8v-0.2c0-6.9,4.5-12.3,10.5-12.3c6.1,0,10.5,5.3,10.5,12.3v0.2
	c0,6.9-4.4,12.3-10.5,12.3C460.3,331.1,455.9,325.7,455.9,318.8z M473.9,318.8v-0.2c0-5.6-3.4-9.8-7.6-9.8c-4.3,0-7.6,4.2-7.6,9.7
	v0.2c0,5.6,3.4,9.8,7.6,9.8C470.8,328.5,473.9,324.3,473.9,318.8z M497.2,334.9l1.2-2.3c2.3,1.5,5,2.4,7.9,2.4
	c4.5,0,7.5-2.5,7.5-7.4v-3.8c-1.7,2.7-4.2,5.1-8.1,5.1c-4.9,0-9.4-4.1-9.4-11.2v-0.2c0-7.1,4.6-11.3,9.4-11.3c3.9,0,6.4,2.3,8,4.9
	v-4.5h2.8v20.8c0,3.2-1,5.6-2.6,7.2c-1.8,1.8-4.5,2.7-7.7,2.7C503.1,337.5,500,336.6,497.2,334.9z M513.9,317.7v-0.2
	c0-5.4-3.8-8.7-7.6-8.7c-3.9,0-7.1,3.2-7.1,8.7v0.1c0,5.4,3.3,8.7,7.1,8.7C510.1,326.4,513.9,323,513.9,317.7z M538.6,297.9h3.2v3.5
	h-3.2V297.9z M538.8,306.7h2.8v23.8h-2.8V306.7z M561.6,327.6l1.5-2.1c2.3,1.9,4.6,3,7.1,3c2.7,0,4.8-1.6,4.8-4v-0.1
	c0-2.2-2-3.3-5.3-4.8c-3.8-1.6-6.9-3.1-6.9-6.8v-0.1c0-3.8,3.1-6.4,7.3-6.4c2.7,0,5.5,1.1,7.4,2.6l-1.4,2.2
	c-1.9-1.3-3.9-2.2-6.1-2.2c-2.6,0-4.5,1.5-4.5,3.6v0.1c0,2.1,2.2,3.2,5.5,4.6c4,1.8,6.8,3.4,6.8,7v0c0,4.2-3.4,6.8-7.6,6.8
	C567.2,331,564,329.7,561.6,327.6z M599,325.1v-15.9h-2.9v-2.5h2.9v-7.1h2.8v7.1h6.5v2.5h-6.5v15.4c0,2.7,1.5,3.6,3.7,3.6
	c0.9,0,1.8-0.2,2.8-0.6v2.5c-1,0.5-2.1,0.8-3.4,0.8C601.5,330.9,599,329.2,599,325.1z M628.8,297.9h3.2v3.5h-3.2V297.9z M629,306.7
	h2.8v23.8H629V306.7z M652.7,318.9v-0.3c0-7.2,4.6-12.3,10.5-12.3c3.4,0,5.6,1.5,7.5,3.3l-1.7,2.1c-1.5-1.5-3.2-2.8-5.8-2.8
	c-4.2,0-7.6,3.9-7.6,9.7v0.2c0,6,3.6,9.7,7.7,9.7c2.4,0,4.2-1.2,5.8-2.8l1.7,1.9c-1.8,2-4.2,3.6-7.6,3.6
	C657.2,331.1,652.7,326.1,652.7,318.9z M688.6,327.6l1.5-2.1c2.3,1.9,4.6,3,7.1,3c2.7,0,4.8-1.6,4.8-4v-0.1c0-2.2-2-3.3-5.3-4.8
	c-3.8-1.6-6.9-3.1-6.9-6.8v-0.1c0-3.8,3.1-6.4,7.3-6.4c2.7,0,5.5,1.1,7.4,2.6l-1.4,2.2c-1.9-1.3-3.9-2.2-6.1-2.2
	c-2.6,0-4.5,1.5-4.5,3.6v0.1c0,2.1,2.2,3.2,5.5,4.6c4,1.8,6.8,3.4,6.8,7v0c0,4.2-3.4,6.8-7.6,6.8C694.2,331,691.1,329.7,688.6,327.6
	z M748.9,327.6l1.5-2.1c2.3,1.9,4.6,3,7.1,3c2.7,0,4.8-1.6,4.8-4v-0.1c0-2.2-2-3.3-5.3-4.8c-3.8-1.6-6.9-3.1-6.9-6.8v-0.1
	c0-3.8,3.1-6.4,7.3-6.4c2.7,0,5.5,1.1,7.4,2.6l-1.4,2.2c-1.9-1.3-3.9-2.2-6.1-2.2c-2.6,0-4.5,1.5-4.5,3.6v0.1c0,2.1,2.2,3.2,5.5,4.6
	c4,1.8,6.8,3.4,6.8,7v0c0,4.2-3.4,6.8-7.6,6.8C754.4,331,751.3,329.7,748.9,327.6z M784.2,318.8v-0.2c0-6.9,4.5-12.3,10.5-12.3
	c6.1,0,10.5,5.3,10.5,12.3v0.2c0,6.9-4.4,12.3-10.5,12.3C788.7,331.1,784.2,325.7,784.2,318.8z M802.3,318.8v-0.2
	c0-5.6-3.4-9.8-7.6-9.8c-4.3,0-7.6,4.2-7.6,9.7v0.2c0,5.6,3.4,9.8,7.6,9.8C799.1,328.5,802.3,324.3,802.3,318.8z M826.1,297.4h2.8
	v33.2h-2.8V297.4z M850.8,322.2v-15.5h2.8v14.7c0,4.5,2.1,7,5.9,7c3.6,0,6.4-2.9,6.4-7.2v-14.5h2.8v23.8h-2.8v-4
	c-1.3,2.4-3.5,4.5-7.2,4.5C853.8,331,850.8,327.6,850.8,322.2z M891.7,325.1v-15.9h-2.9v-2.5h2.9v-7.1h2.8v7.1h6.5v2.5h-6.5v15.4
	c0,2.7,1.5,3.6,3.7,3.6c0.9,0,1.8-0.2,2.8-0.6v2.5c-1,0.5-2.1,0.8-3.4,0.8C894.2,330.9,891.7,329.2,891.7,325.1z M921.5,297.9h3.2
	v3.5h-3.2V297.9z M921.7,306.7h2.8v23.8h-2.8V306.7z M945.4,318.8v-0.2c0-6.9,4.5-12.3,10.5-12.3c6.1,0,10.5,5.3,10.5,12.3v0.2
	c0,6.9-4.4,12.3-10.5,12.3C949.8,331.1,945.4,325.7,945.4,318.8z M963.5,318.8v-0.2c0-5.6-3.4-9.8-7.6-9.8c-4.3,0-7.6,4.2-7.6,9.7
	v0.2c0,5.6,3.4,9.8,7.6,9.8C960.3,328.5,963.5,324.3,963.5,318.8z M987,306.7h2.7v4c1.4-2.4,3.5-4.5,7.2-4.5c4.9,0,7.9,3.4,7.9,8.8
	v15.5h-2.8v-14.7c0-4.5-2.1-7.1-5.8-7.1c-3.7,0-6.5,3-6.5,7.2v14.5H987V306.7z M1024.3,327.6l1.5-2.1c2.3,1.9,4.6,3,7.1,3
	c2.7,0,4.8-1.6,4.8-4v-0.1c0-2.2-2-3.3-5.3-4.8c-3.8-1.6-6.9-3.1-6.9-6.8v-0.1c0-3.8,3.1-6.4,7.3-6.4c2.7,0,5.5,1.1,7.4,2.6
	l-1.4,2.2c-1.9-1.3-3.9-2.2-6.1-2.2c-2.6,0-4.5,1.5-4.5,3.6v0.1c0,2.1,2.2,3.2,5.5,4.6c4,1.8,6.8,3.4,6.8,7v0c0,4.2-3.4,6.8-7.6,6.8
	C1029.9,331,1026.8,329.7,1024.3,327.6z"/>


</svg>
